<?xml version="1.0" encoding="UTF-8" standalone="no"?>
<!DOCTYPE svg PUBLIC "-//W3C//DTD SVG 1.1//EN" "http://www.w3.org/Graphics/SVG/1.1/DTD/svg11.dtd">
<svg version="1.1" xmlns="http://www.w3.org/2000/svg" xmlns:xlink="http://www.w3.org/1999/xlink" preserveAspectRatio="xMidYMid meet" viewBox="0 0 640 640" width="640" height="640"><defs><path d="M75.9 0L167.39 0L167.39 32.98L75.9 32.98L75.9 0Z" id="a6409bLHB5"></path><path d="M472.61 0L564.1 0L564.1 32.98L472.61 32.98L472.61 0Z" id="b4DL3DlBt"></path><path d="M611.66 28.19C621.79 28.19 630 36.4 630 46.53C630 159.58 630 480.42 630 593.47C630 603.6 621.79 611.81 611.66 611.81C491.33 611.81 148.67 611.81 28.34 611.81C18.21 611.81 10 603.6 10 593.47C10 480.42 10 159.58 10 46.53C10 36.4 18.21 28.19 28.34 28.19C148.67 28.19 491.33 28.19 611.66 28.19Z" id="bblX8ttNd"></path><path d="M549.33 132.37C557.49 132.37 564.1 138.98 564.1 147.13C564.1 153.3 564.1 157.03 564.1 163.2C564.1 171.35 557.49 177.96 549.33 177.96C454.65 177.96 185.35 177.96 90.67 177.96C82.51 177.96 75.9 171.35 75.9 163.2C75.9 157.03 75.9 153.3 75.9 147.13C75.9 138.98 82.51 132.37 90.67 132.37C185.35 132.37 454.65 132.37 549.33 132.37Z" id="g18qRRJ0fi"></path><path d="M549.33 338.62C557.49 338.62 564.1 345.23 564.1 353.38C564.1 359.55 564.1 363.28 564.1 369.45C564.1 377.6 557.49 384.21 549.33 384.21C454.65 384.21 185.35 384.21 90.67 384.21C82.51 384.21 75.9 377.6 75.9 369.45C75.9 363.28 75.9 359.55 75.9 353.38C75.9 345.23 82.51 338.62 90.67 338.62C185.35 338.62 454.65 338.62 549.33 338.62Z" id="a7Pmj6Y7f"></path><path d="M549.33 235.73C557.49 235.73 564.1 242.34 564.1 250.49C564.1 256.66 564.1 260.39 564.1 266.56C564.1 274.71 557.49 281.32 549.33 281.32C454.65 281.32 185.35 281.32 90.67 281.32C82.51 281.32 75.9 274.71 75.9 266.56C75.9 260.39 75.9 256.66 75.9 250.49C75.9 242.34 82.51 235.73 90.67 235.73C185.35 235.73 454.65 235.73 549.33 235.73Z" id="eDKTIuAtD"></path><path d="M549.33 444.51C557.49 444.51 564.1 451.12 564.1 459.28C564.1 465.44 564.1 469.18 564.1 475.35C564.1 483.5 557.49 490.11 549.33 490.11C454.65 490.11 185.35 490.11 90.67 490.11C82.51 490.11 75.9 483.5 75.9 475.35C75.9 469.18 75.9 465.44 75.9 459.28C75.9 451.12 82.51 444.51 90.67 444.51C185.35 444.51 454.65 444.51 549.33 444.51Z" id="aJ4f9cYPK"></path></defs><g><g><g><use xlink:href="#a6409bLHB5" opacity="1" fill="#070928" fill-opacity="1"></use></g><g><use xlink:href="#b4DL3DlBt" opacity="1" fill="#070928" fill-opacity="1"></use></g><g><use xlink:href="#bblX8ttNd" opacity="1" fill="#070928" fill-opacity="1"></use></g><g><use xlink:href="#g18qRRJ0fi" opacity="1" fill="#ffffff" fill-opacity="1"></use></g><g><use xlink:href="#a7Pmj6Y7f" opacity="1" fill="#ffffff" fill-opacity="1"></use></g><g><use xlink:href="#eDKTIuAtD" opacity="1" fill="#ffffff" fill-opacity="1"></use></g><g><use xlink:href="#aJ4f9cYPK" opacity="1" fill="#ffffff" fill-opacity="1"></use></g></g></g></svg>