<?xml version="1.0" standalone="no"?>
<!DOCTYPE svg PUBLIC "-//W3C//DTD SVG 20010904//EN"
 "http://www.w3.org/TR/2001/REC-SVG-20010904/DTD/svg10.dtd">
<svg version="1.0" xmlns="http://www.w3.org/2000/svg"
 width="700.000000pt" height="700.000000pt" viewBox="0 0 700.000000 700.000000"
 preserveAspectRatio="xMidYMid meet">
<metadata>
Created by potrace 1.14, written by Peter Selinger 2001-2017
</metadata>
<g transform="translate(0.000000,700.000000) scale(0.100000,-0.100000)"
fill="#000000" stroke="none">
<path d="M830 6845 l0 -155 -282 0 c-253 0 -287 -2 -323 -19 -49 -22 -91 -69
-105 -119 -8 -26 -10 -940 -8 -3074 l3 -3036 30 -44 c18 -25 49 -52 75 -65
l44 -23 3236 0 3236 0 44 22 c26 14 57 41 75 66 l30 44 0 3058 0 3058 -30 44
c-18 25 -49 52 -75 66 -43 21 -54 22 -327 22 l-283 0 0 155 0 155 -500 0 -500
0 0 -155 0 -155 -1670 0 -1670 0 0 155 0 155 -500 0 -500 0 0 -155z m5260
-1317 c67 -46 75 -66 78 -209 3 -116 1 -134 -18 -174 -13 -26 -36 -53 -58 -67
l-37 -23 -2556 0 -2555 0 -41 27 c-62 41 -75 86 -71 241 3 139 11 159 78 205
l33 22 2557 0 2557 0 33 -22z m6 -1134 c62 -46 69 -65 72 -201 4 -155 -9 -200
-71 -241 l-41 -27 -2555 0 -2556 0 -39 24 c-60 38 -76 83 -76 223 0 123 8 158
43 197 49 53 -113 50 2639 48 l2557 -2 27 -21z m-4 -1122 c22 -14 45 -41 58
-67 19 -40 21 -58 18 -174 -3 -143 -11 -163 -78 -208 l-33 -23 -2557 0 -2557
0 -33 23 c-67 45 -75 65 -78 208 -3 116 -1 134 18 173 21 45 53 72 99 86 14 5
1169 8 2566 7 l2540 -2 37 -23z m-12 -1154 c29 -15 53 -37 68 -63 21 -37 22
-50 20 -176 -3 -130 -4 -137 -30 -171 -15 -19 -42 -43 -62 -52 -32 -15 -235
-16 -2589 -14 l-2556 3 -27 21 c-63 47 -69 63 -72 212 -2 127 -1 140 20 177
15 26 39 48 68 63 l44 22 2536 0 2536 0 44 -22z"/>
</g>
</svg>
